<svg width="12" height="12" viewBox="0 0 12 12" fill="none" xmlns="http://www.w3.org/2000/svg">
<g opacity="0.3">
<path opacity="0.6" d="M11.428 1.60092C11.5267 1.50254 11.6051 1.38564 11.6585 1.25692C11.712 1.12821 11.7395 0.990204 11.7395 0.850831C11.7395 0.711458 11.712 0.573455 11.6585 0.444737C11.6051 0.31602 11.5267 0.199119 11.428 0.100738C11.349 0.0356138 11.2498 0 11.1474 0C11.045 0 10.9458 0.0356138 10.8668 0.100738L6 4.97017L1.60092 0.571973C1.50254 0.47325 1.38564 0.394919 1.25692 0.341471C1.12821 0.288024 0.990204 0.260511 0.850831 0.260511C0.711458 0.260511 0.573455 0.288024 0.444737 0.341471C0.31602 0.394919 0.199119 0.47325 0.100738 0.571973C0.0356138 0.650991 0 0.7502 0 0.852596C0 0.954992 0.0356138 1.0542 0.100738 1.13322L4.97017 6L0.571973 10.3991C0.47325 10.4975 0.394919 10.6144 0.341471 10.7431C0.288024 10.8718 0.260511 11.0098 0.260511 11.1492C0.260511 11.2885 0.288024 11.4265 0.341471 11.5553C0.394919 11.684 0.47325 11.8009 0.571973 11.8993C0.650991 11.9644 0.7502 12 0.852596 12C0.954992 12 1.0542 11.9644 1.13322 11.8993L6 7.02983L10.3991 11.4289C10.4975 11.5276 10.6144 11.606 10.7431 11.6594C10.8718 11.7129 11.0098 11.7404 11.1492 11.7404C11.2885 11.7404 11.4265 11.7129 11.5553 11.6594C11.684 11.606 11.8009 11.5276 11.8993 11.4289C11.9644 11.3499 12 11.2507 12 11.1483C12 11.0459 11.9644 10.9467 11.8993 10.8677L7.02983 6L11.428 1.60092Z" fill="#3B5B9C"/>
</g>
</svg>
